<?xml version="1.0" encoding="UTF-8"?>
<svg width="30px" height="19px" viewBox="0 0 30 19" version="1.1" xmlns="http://www.w3.org/2000/svg" xmlns:xlink="http://www.w3.org/1999/xlink">
    <!-- Generator: Sketch 61.2 (89653) - https://sketch.com -->
    <title>mobile-combined-shape@3x</title>
    <desc>Created with Sketch.</desc>
    <g id="Page-1" stroke="none" stroke-width="1" fill="none" fill-rule="evenodd">
        <g id="mobile-combined-shape" fill="#000000" fill-rule="nonzero">
            <path d="M19.3333333,16 C19.7015231,16 20,16.6715729 20,17.5 C20,18.3284271 19.7015231,19 19.3333333,19 L0.666666667,19 C0.298476833,19 0,18.3284271 0,17.5 C0,16.6715729 0.298476833,16 0.666666667,16 L19.3333333,16 Z M24.1666667,8 C24.6269039,8 25,8.67157295 25,9.5 C25,10.328427 24.6269039,11 24.1666667,11 L0.833333333,11 C0.373096042,11 0,10.328427 0,9.5 C0,8.67157295 0.373096042,8 0.833333333,8 L24.1666667,8 Z M29,0 C29.5522847,0 30,0.671572875 30,1.5 C30,2.32842713 29.5522847,3 29,3 L1,3 C0.44771525,3 0,2.32842713 0,1.5 C0,0.671572875 0.44771525,0 1,0 L29,0 Z" id="Combined-Shape"></path>
        </g>
    </g>
</svg>